<svg width="393" height="852" viewBox="0 0 393 852" fill="none" xmlns="http://www.w3.org/2000/svg">
<rect width="393" height="852" fill="url(#paint0_radial_62_52)"/>
<g opacity="0.7" clip-path="url(#clip0_62_52)">
<rect width="393" height="469" transform="translate(0 192)" fill="white"/>
<rect x="-38" y="164.552" width="469" height="496.448" fill="url(#paint1_linear_62_52)"/>
<g opacity="0.7">
<mask id="mask0_62_52" style="mask-type:alpha" maskUnits="userSpaceOnUse" x="-38" y="192" width="469" height="469">
<rect x="-38" y="192" width="469" height="469" fill="url(#paint2_radial_62_52)"/>
</mask>
<g mask="url(#mask0_62_52)">
<path d="M40.8253 206.819V235.542L15.0724 249.914L-10.6786 235.542V206.819L15.0724 192.446L40.8253 206.819Z" stroke="white" stroke-width="0.781667"/>
<path d="M92.6332 206.819V235.542L66.8803 249.914L41.1293 235.542V206.819L66.8803 192.446L92.6332 206.819Z" stroke="white" stroke-width="0.781667"/>
<path d="M144.441 206.819V235.542L118.688 249.914L92.9369 235.542V206.819L118.688 192.446L144.441 206.819Z" stroke="white" stroke-width="0.781667"/>
<path d="M196.248 206.819V235.542L170.495 249.914L144.745 235.542V206.819L170.495 192.446L196.248 206.819Z" stroke="white" stroke-width="0.781667"/>
<path d="M248.056 206.819V235.542L222.303 249.914L196.552 235.542V206.819L222.303 192.446L248.056 206.819Z" stroke="white" stroke-width="0.781667"/>
<path d="M299.863 206.819V235.542L274.111 249.914L248.36 235.542V206.819L274.111 192.446L299.863 206.819Z" stroke="white" stroke-width="0.781667"/>
<path d="M351.671 206.819V235.542L325.918 249.914L300.167 235.542V206.819L325.918 192.446L351.671 206.819Z" stroke="white" stroke-width="0.781667"/>
<path d="M403.479 206.819V235.542L377.726 249.914L351.975 235.542V206.819L377.726 192.446L403.479 206.819Z" stroke="white" stroke-width="0.781667"/>
<path d="M14.6395 249.42V278.143L-11.1135 292.515L-36.8644 278.143V249.42L-11.1135 235.047L14.6395 249.42Z" stroke="white" stroke-width="0.781667"/>
<path d="M66.4474 249.42V278.143L40.6945 292.515L14.9435 278.143V249.42L40.6945 235.047L66.4474 249.42Z" stroke="white" stroke-width="0.781667"/>
<path d="M118.255 249.42V278.143L92.502 292.515L66.751 278.143V249.42L92.502 235.047L118.255 249.42Z" stroke="white" stroke-width="0.781667"/>
<path d="M170.062 249.42V278.143L144.31 292.515L118.559 278.143V249.42L144.31 235.047L170.062 249.42Z" stroke="white" stroke-width="0.781667"/>
<path d="M221.87 249.42V278.143L196.117 292.515L170.366 278.143V249.42L196.117 235.047L221.87 249.42Z" stroke="white" stroke-width="0.781667"/>
<path d="M273.678 249.42V278.143L247.925 292.515L222.174 278.143V249.42L247.925 235.047L273.678 249.42Z" stroke="white" stroke-width="0.781667"/>
<path d="M325.485 249.42V278.143L299.732 292.515L273.981 278.143V249.42L299.732 235.047L325.485 249.42Z" stroke="white" stroke-width="0.781667"/>
<path d="M377.293 249.42V278.143L351.54 292.515L325.789 278.143V249.42L351.54 235.047L377.293 249.42Z" stroke="white" stroke-width="0.781667"/>
<path d="M429.101 249.42V278.143L403.348 292.515L377.597 278.143V249.42L403.348 235.047L429.101 249.42Z" stroke="white" stroke-width="0.781667"/>
<path d="M40.2615 292.021V320.744L14.5086 335.116L-11.2424 320.744V292.021L14.5086 277.648L40.2615 292.021Z" stroke="white" stroke-width="0.781667"/>
<path d="M92.0692 292.021V320.744L66.3162 335.116L40.5652 320.744V292.021L66.3162 277.648L92.0692 292.021Z" stroke="white" stroke-width="0.781667"/>
<path d="M143.877 292.021V320.744L118.124 335.116L92.3728 320.744V292.021L118.124 277.648L143.877 292.021Z" stroke="white" stroke-width="0.781667"/>
<path d="M195.684 292.021V320.744L169.931 335.116L144.18 320.744V292.021L169.931 277.648L195.684 292.021Z" stroke="white" stroke-width="0.781667"/>
<path d="M247.492 292.021V320.744L221.739 335.116L195.988 320.744V292.021L221.739 277.648L247.492 292.021Z" stroke="white" stroke-width="0.781667"/>
<path d="M299.299 292.021V320.744L273.546 335.116L247.795 320.744V292.021L273.546 277.648L299.299 292.021Z" stroke="white" stroke-width="0.781667"/>
<path d="M351.107 292.021V320.744L325.354 335.116L299.603 320.744V292.021L325.354 277.648L351.107 292.021Z" stroke="white" stroke-width="0.781667"/>
<path d="M402.915 292.021V320.744L377.162 335.116L351.411 320.744V292.021L377.162 277.648L402.915 292.021Z" stroke="white" stroke-width="0.781667"/>
<path d="M14.0758 334.622V363.345L-11.6771 377.717L-37.4281 363.345V334.622L-11.6771 320.249L14.0758 334.622Z" stroke="white" stroke-width="0.781667"/>
<path d="M65.8833 334.622V363.345L40.1304 377.717L14.3794 363.345V334.622L40.1304 320.249L65.8833 334.622Z" stroke="white" stroke-width="0.781667"/>
<path d="M117.691 334.622V363.345L91.938 377.717L66.187 363.345V334.622L91.938 320.249L117.691 334.622Z" stroke="white" stroke-width="0.781667"/>
<path d="M169.498 334.622V363.345L143.745 377.717L117.995 363.345V334.622L143.745 320.249L169.498 334.622Z" stroke="white" stroke-width="0.781667"/>
<path d="M221.306 334.622V363.345L195.553 377.717L169.802 363.345V334.622L195.553 320.249L221.306 334.622Z" stroke="white" stroke-width="0.781667"/>
<path d="M273.114 334.622V363.345L247.361 377.717L221.61 363.345V334.622L247.361 320.249L273.114 334.622Z" stroke="white" stroke-width="0.781667"/>
<path d="M324.921 334.622V363.345L299.168 377.717L273.417 363.345V334.622L299.168 320.249L324.921 334.622Z" stroke="white" stroke-width="0.781667"/>
<path d="M376.729 334.622V363.345L350.976 377.717L325.225 363.345V334.622L350.976 320.249L376.729 334.622Z" stroke="white" stroke-width="0.781667"/>
<path d="M428.314 334.622V363.345L402.562 377.717L376.811 363.345V334.622L402.562 320.249L428.314 334.622Z" stroke="white" stroke-width="0.781667"/>
<path d="M39.6975 377.223V405.945L13.9446 420.317L-11.8064 405.945V377.223L13.9446 362.85L39.6975 377.223Z" stroke="white" stroke-width="0.781667"/>
<path d="M91.505 377.223V405.945L65.7521 420.317L40.0011 405.945V377.223L65.7521 362.85L91.505 377.223Z" stroke="white" stroke-width="0.781667"/>
<path d="M143.313 377.223V405.945L117.56 420.317L91.8087 405.945V377.223L117.56 362.85L143.313 377.223Z" stroke="white" stroke-width="0.781667"/>
<path d="M195.12 377.223V405.945L169.367 420.317L143.616 405.945V377.223L169.367 362.85L195.12 377.223Z" stroke="white" stroke-width="0.781667"/>
<path d="M246.928 377.223V405.945L221.175 420.317L195.424 405.945V377.223L221.175 362.85L246.928 377.223Z" stroke="white" stroke-width="0.781667"/>
<path d="M298.736 377.223V405.945L272.983 420.317L247.232 405.945V377.223L272.983 362.85L298.736 377.223Z" stroke="white" stroke-width="0.781667"/>
<path d="M350.543 377.223V405.945L324.79 420.317L299.039 405.945V377.223L324.79 362.85L350.543 377.223Z" stroke="white" stroke-width="0.781667"/>
<path d="M13.5116 419.824V448.546L-12.2413 462.918L-37.9923 448.546V419.824L-12.2413 405.451L13.5116 419.824Z" stroke="white" stroke-width="0.781667"/>
<path d="M65.3192 419.824V448.546L39.5663 462.918L13.8153 448.546V419.824L39.5663 405.451L65.3192 419.824Z" stroke="white" stroke-width="0.781667"/>
<path d="M117.127 419.824V448.546L91.3738 462.918L65.6228 448.546V419.824L91.3738 405.451L117.127 419.824Z" stroke="white" stroke-width="0.781667"/>
<path d="M168.934 419.824V448.546L143.181 462.918L117.43 448.546V419.824L143.181 405.451L168.934 419.824Z" stroke="white" stroke-width="0.781667"/>
<path d="M220.742 419.824V448.546L194.989 462.918L169.238 448.546V419.824L194.989 405.451L220.742 419.824Z" stroke="white" stroke-width="0.781667"/>
<path d="M272.55 419.824V448.546L246.797 462.918L221.046 448.546V419.824L246.797 405.451L272.55 419.824Z" stroke="white" stroke-width="0.781667"/>
<path d="M324.357 419.824V448.546L298.604 462.918L272.853 448.546V419.824L298.604 405.451L324.357 419.824Z" stroke="white" stroke-width="0.781667"/>
<path d="M39.1334 462.424V491.147L13.3804 505.519L-12.3705 491.147V462.424L13.3804 448.051L39.1334 462.424Z" stroke="white" stroke-width="0.781667"/>
<path d="M90.9409 462.424V491.147L65.188 505.519L39.437 491.147V462.424L65.188 448.051L90.9409 462.424Z" stroke="white" stroke-width="0.781667"/>
<path d="M142.748 462.424V491.147L116.995 505.519L91.2445 491.147V462.424L116.995 448.051L142.748 462.424Z" stroke="white" stroke-width="0.781667"/>
<path d="M194.556 462.424V491.147L168.803 505.519L143.052 491.147V462.424L168.803 448.051L194.556 462.424Z" stroke="white" stroke-width="0.781667"/>
<path d="M246.364 462.424V491.147L220.611 505.519L194.86 491.147V462.424L220.611 448.051L246.364 462.424Z" stroke="white" stroke-width="0.781667"/>
<path d="M298.172 462.424V491.147L272.419 505.519L246.668 491.147V462.424L272.419 448.051L298.172 462.424Z" stroke="white" stroke-width="0.781667"/>
<path d="M12.9475 505.025V533.748L-12.8054 548.12L-38.5564 533.748V505.025L-12.8054 490.652L12.9475 505.025Z" stroke="white" stroke-width="0.781667"/>
<path d="M64.7551 505.025V533.748L39.0021 548.12L13.2512 533.748V505.025L39.0021 490.652L64.7551 505.025Z" stroke="white" stroke-width="0.781667"/>
<path d="M116.563 505.025V533.748L90.8097 548.12L65.0587 533.748V505.025L90.8097 490.652L116.563 505.025Z" stroke="white" stroke-width="0.781667"/>
<path d="M168.37 505.025V533.748L142.617 548.12L116.866 533.748V505.025L142.617 490.652L168.37 505.025Z" stroke="white" stroke-width="0.781667"/>
<path d="M220.178 505.025V533.748L194.425 548.12L168.674 533.748V505.025L194.425 490.652L220.178 505.025Z" stroke="white" stroke-width="0.781667"/>
<path d="M271.986 505.025V533.748L246.233 548.12L220.482 533.748V505.025L246.233 490.652L271.986 505.025Z" stroke="white" stroke-width="0.781667"/>
<path d="M38.5693 547.626V576.349L12.8164 590.721L-12.9346 576.349V547.626L12.8164 533.253L38.5693 547.626Z" stroke="white" stroke-width="0.781667"/>
<path d="M90.3768 547.626V576.349L64.6238 590.721L38.8729 576.349V547.626L64.6238 533.253L90.3768 547.626Z" stroke="white" stroke-width="0.781667"/>
<path d="M142.184 547.626V576.349L116.431 590.721L90.6804 576.349V547.626L116.431 533.253L142.184 547.626Z" stroke="white" stroke-width="0.781667"/>
<path d="M193.992 547.626V576.349L168.239 590.721L142.488 576.349V547.626L168.239 533.253L193.992 547.626Z" stroke="white" stroke-width="0.781667"/>
<path d="M245.8 547.626V576.349L220.047 590.721L194.296 576.349V547.626L220.047 533.253L245.8 547.626Z" stroke="white" stroke-width="0.781667"/>
<path d="M297.776 547.626V576.349L272.023 590.721L246.272 576.349V547.626L272.023 533.253L297.776 547.626Z" stroke="white" stroke-width="0.781667"/>
<path d="M349.584 547.626V576.349L323.831 590.721L298.08 576.349V547.626L323.831 533.253L349.584 547.626Z" stroke="white" stroke-width="0.781667"/>
<path d="M401.391 547.626V576.349L375.638 590.721L349.887 576.349V547.626L375.638 533.253L401.391 547.626Z" stroke="white" stroke-width="0.781667"/>
<path d="M12.3834 590.227V618.95L-13.3695 633.322L-39.1205 618.95V590.227L-13.3695 575.854L12.3834 590.227Z" stroke="white" stroke-width="0.781667"/>
<path d="M64.191 590.227V618.95L38.4381 633.322L12.6871 618.95V590.227L38.4381 575.854L64.191 590.227Z" stroke="white" stroke-width="0.781667"/>
<path d="M115.999 590.227V618.95L90.2456 633.322L64.4946 618.95V590.227L90.2456 575.854L115.999 590.227Z" stroke="white" stroke-width="0.781667"/>
<path d="M167.806 590.227V618.95L142.054 633.322L116.303 618.95V590.227L142.054 575.854L167.806 590.227Z" stroke="white" stroke-width="0.781667"/>
<path d="M219.614 590.227V618.95L193.861 633.322L168.11 618.95V590.227L193.861 575.854L219.614 590.227Z" stroke="white" stroke-width="0.781667"/>
<path d="M38.0051 632.828V661.55L12.2522 675.922L-13.4988 661.55V632.828L12.2522 618.455L38.0051 632.828Z" stroke="white" stroke-width="0.781667"/>
<path d="M89.8127 632.828V661.55L64.0598 675.922L38.3088 661.55V632.828L64.0598 618.455L89.8127 632.828Z" stroke="white" stroke-width="0.781667"/>
<path d="M141.621 632.828V661.55L115.868 675.922L90.1167 661.55V632.828L115.868 618.455L141.621 632.828Z" stroke="white" stroke-width="0.781667"/>
<path d="M193.428 632.828V661.55L167.675 675.922L141.924 661.55V632.828L167.675 618.455L193.428 632.828Z" stroke="white" stroke-width="0.781667"/>
<path d="M245.404 633.219V661.941L219.651 676.313L193.901 661.941V633.219L219.651 618.845L245.404 633.219Z" stroke="white" stroke-width="0.781667"/>
<path d="M297.212 633.219V661.941L271.459 676.313L245.708 661.941V633.219L271.459 618.845L297.212 633.219Z" stroke="white" stroke-width="0.781667"/>
<path d="M349.02 633.219V661.941L323.267 676.313L297.516 661.941V633.219L323.267 618.845L349.02 633.219Z" stroke="white" stroke-width="0.781667"/>
<path d="M400.827 633.219V661.941L375.074 676.313L349.323 661.941V633.219L375.074 618.845L400.827 633.219Z" stroke="white" stroke-width="0.781667"/>
<path d="M402.519 377.223V405.945L376.766 420.317L351.016 405.945V377.223L376.766 362.85L402.519 377.223Z" stroke="white" stroke-width="0.781667"/>
<path d="M376.334 420.214V448.937L350.581 463.309L324.83 448.937V420.214L350.581 405.841L376.334 420.214Z" stroke="white" stroke-width="0.781667"/>
<path d="M428.141 420.214V448.937L402.388 463.309L376.637 448.937V420.214L402.388 405.841L428.141 420.214Z" stroke="white" stroke-width="0.781667"/>
<path d="M350.148 463.206V491.929L324.395 506.301L298.644 491.929V463.206L324.395 448.833L350.148 463.206Z" stroke="white" stroke-width="0.781667"/>
<path d="M401.955 463.206V491.929L376.202 506.301L350.451 491.929V463.206L376.202 448.833L401.955 463.206Z" stroke="white" stroke-width="0.781667"/>
<path d="M323.962 505.416V534.139L298.209 548.511L272.458 534.139V505.416L298.209 491.043L323.962 505.416Z" stroke="white" stroke-width="0.781667"/>
<path d="M375.77 505.416V534.139L350.017 548.511L324.266 534.139V505.416L350.017 491.043L375.77 505.416Z" stroke="white" stroke-width="0.781667"/>
<path d="M427.577 505.416V534.139L401.824 548.511L376.073 534.139V505.416L401.824 491.043L427.577 505.416Z" stroke="white" stroke-width="0.781667"/>
<path d="M271.199 590.618V619.34L245.446 633.712L219.695 619.34V590.618L245.446 576.245L271.199 590.618Z" stroke="white" stroke-width="0.781667"/>
<path d="M323.007 590.618V619.34L297.254 633.712L271.503 619.34V590.618L297.254 576.245L323.007 590.618Z" stroke="white" stroke-width="0.781667"/>
<path d="M374.815 590.618V619.34L349.062 633.712L323.311 619.34V590.618L349.062 576.245L374.815 590.618Z" stroke="white" stroke-width="0.781667"/>
<path d="M426.622 590.618V619.34L400.87 633.712L375.119 619.34V590.618L400.87 576.245L426.622 590.618Z" stroke="white" stroke-width="0.781667"/>
</g>
</g>
</g>
<defs>
<radialGradient id="paint0_radial_62_52" cx="0" cy="0" r="1" gradientUnits="userSpaceOnUse" gradientTransform="translate(197 391) rotate(0.172809) scale(1492.01 688.214)">
<stop stop-color="#2D2DE7"/>
<stop offset="1" stop-color="#14187B"/>
</radialGradient>
<linearGradient id="paint1_linear_62_52" x1="196.5" y1="237.819" x2="196.5" y2="661" gradientUnits="userSpaceOnUse">
<stop stop-color="#2526C4"/>
<stop offset="1" stop-color="#2224BA"/>
</linearGradient>
<radialGradient id="paint2_radial_62_52" cx="0" cy="0" r="1" gradientUnits="userSpaceOnUse" gradientTransform="translate(196.5 426.5) rotate(90) scale(262.249)">
<stop/>
<stop offset="1" stop-opacity="0"/>
</radialGradient>
<clipPath id="clip0_62_52">
<rect width="393" height="469" fill="white" transform="translate(0 192)"/>
</clipPath>
</defs>
</svg>
