<svg width="23" height="24" viewBox="0 0 23 24" fill="none" xmlns="http://www.w3.org/2000/svg">
<path d="M16.75 3.77956C14.4387 1.92701 13.0667 1.00073 11.5 1.00073C9.65841 1.00073 8.08582 2.28056 4.94065 4.8401L4.72614 5.01463C3.00267 6.41718 2.14093 7.11851 1.63472 8.06839C1.55335 8.22113 1.47922 8.37782 1.41286 8.53794C1 9.53343 1 10.656 1 12.9011V17.6601C1 20.6096 3.35053 23.0007 6.25 23.0007C7.40983 23.0007 8.35 22.0443 8.35 20.8645V16.5919C8.35 14.8222 9.76025 13.3875 11.5 13.3875C13.2397 13.3875 14.65 14.8222 14.65 16.5919V20.8645C14.65 22.0443 15.5902 23.0007 16.75 23.0007C19.6495 23.0007 22 20.6096 22 17.6601V12.9011C22 10.656 22 9.53343 21.5871 8.53794C21.5208 8.37782 21.4466 8.22113 21.3653 8.06839C21.0525 7.48135 20.6038 6.98927 19.9 6.36805" stroke="white" stroke-width="1.5" stroke-linecap="round" stroke-linejoin="round"/>
</svg>
