<svg width="24" height="22" viewBox="0 0 24 22" fill="none" xmlns="http://www.w3.org/2000/svg">
<path d="M5 4.00073H3C2.535 4.00073 2.303 4.00073 2.112 4.05173C1.594 4.19073 1.18999 4.59473 1.05099 5.11273C0.999995 5.30373 1 5.53573 1 6.00073C1 6.93073 0.99999 7.39573 1.10199 7.77673C1.37999 8.81273 2.188 9.62073 3.224 9.89873C3.605 10.0007 4.07 10.0007 5 10.0007M19 4.00073H21C21.465 4.00073 21.697 4.00073 21.888 4.05173C22.406 4.19073 22.81 4.59473 22.949 5.11273C23 5.30373 23 5.53573 23 6.00073C23 6.93073 23 7.39573 22.898 7.77673C22.62 8.81273 21.812 9.62073 20.776 9.89873C20.395 10.0007 19.93 10.0007 19 10.0007M12 17.0007V14.6007C12 14.0457 12 13.7677 12.106 13.5557C12.201 13.3667 12.346 13.2187 12.533 13.1197C12.742 13.0097 13.028 13.0037 13.6 12.9907C14.471 12.9727 15.047 12.9177 15.545 12.7557C17.067 12.2617 18.261 11.0677 18.755 9.54573C19 8.79273 19 7.86173 19 6.00073V5.50073C19 4.10273 19 3.40374 18.772 2.85274C18.467 2.11774 17.883 1.53373 17.148 1.22873C16.597 1.00073 15.898 1.00073 14.5 1.00073H9.5C8.102 1.00073 7.40299 1.00073 6.85199 1.22873C6.11699 1.53373 5.533 2.11774 5.228 2.85274C5 3.40374 5 4.10273 5 5.50073V6.00073C5 7.86173 5 8.79273 5.245 9.54573C5.739 11.0677 6.93299 12.2617 8.45499 12.7557M9.091 21.0007H14.909C15.512 21.0007 16 20.5127 16 19.9097C16 18.3027 14.698 17.0007 13.091 17.0007H10.909C9.302 17.0007 8 18.3027 8 19.9097C8 20.5127 8.488 21.0007 9.091 21.0007Z" stroke="#A2A2A2" stroke-width="1.5" stroke-linecap="round" stroke-linejoin="round"/>
</svg>
