<svg width="22" height="22" viewBox="0 0 22 22" fill="none" xmlns="http://www.w3.org/2000/svg">
<g clip-path="url(#clip0_78_1831)">
<path d="M16.5 7.33398C16.5 5.87529 15.9205 4.47635 14.8891 3.4449C13.8576 2.41345 12.4587 1.83398 11 1.83398C9.54131 1.83398 8.14236 2.41345 7.11091 3.4449C6.07946 4.47635 5.5 5.87529 5.5 7.33398C5.5 13.7507 2.75 15.584 2.75 15.584H19.25C19.25 15.584 16.5 13.7507 16.5 7.33398Z" stroke="white" stroke-width="2" stroke-linecap="round" stroke-linejoin="round"/>
<path d="M12.5858 19.2507C12.4247 19.5286 12.1933 19.7592 11.915 19.9195C11.6367 20.0798 11.3212 20.1642 11 20.1642C10.6788 20.1642 10.3633 20.0798 10.0849 19.9195C9.80663 19.7592 9.57531 19.5286 9.41415 19.2507" stroke="white" stroke-width="2" stroke-linecap="round" stroke-linejoin="round"/>
</g>
<defs>
<clipPath id="clip0_78_1831">
<rect width="22" height="22" fill="white" transform="translate(0 0.000732422)"/>
</clipPath>
</defs>
</svg>
