<svg width="20" height="20" viewBox="0 0 20 20" fill="none" xmlns="http://www.w3.org/2000/svg">
<g clip-path="url(#clip0_78_1882)">
<path d="M10 12.5007C11.3807 12.5007 12.5 11.3814 12.5 10.0007C12.5 8.62002 11.3807 7.50073 10 7.50073C8.61929 7.50073 7.5 8.62002 7.5 10.0007C7.5 11.3814 8.61929 12.5007 10 12.5007Z" stroke="white" stroke-width="2" stroke-linecap="round" stroke-linejoin="round"/>
<path d="M16.1667 12.5007C16.0557 12.752 16.0227 13.0308 16.0717 13.3011C16.1207 13.5715 16.2496 13.8209 16.4417 14.0173L16.4917 14.0673C16.6466 14.2221 16.7696 14.4059 16.8534 14.6083C16.9373 14.8106 16.9805 15.0275 16.9805 15.2465C16.9805 15.4655 16.9373 15.6824 16.8534 15.8847C16.7696 16.087 16.6466 16.2709 16.4917 16.4257C16.3369 16.5806 16.1531 16.7035 15.9507 16.7874C15.7484 16.8713 15.5315 16.9145 15.3125 16.9145C15.0935 16.9145 14.8766 16.8713 14.6743 16.7874C14.4719 16.7035 14.2881 16.5806 14.1333 16.4257L14.0833 16.3757C13.8869 16.1835 13.6375 16.0547 13.3672 16.0056C13.0968 15.9566 12.818 15.9897 12.5667 16.1007C12.3202 16.2063 12.11 16.3817 11.9619 16.6053C11.8139 16.8288 11.7344 17.0908 11.7333 17.359V17.5007C11.7333 17.9427 11.5577 18.3666 11.2452 18.6792C10.9326 18.9917 10.5087 19.1673 10.0667 19.1673C9.62465 19.1673 9.20073 18.9917 8.88817 18.6792C8.57561 18.3666 8.40001 17.9427 8.40001 17.5007V17.4257C8.39356 17.1498 8.30428 16.8823 8.14377 16.6579C7.98326 16.4335 7.75896 16.2626 7.50001 16.1673C7.24866 16.0564 6.96985 16.0233 6.69952 16.0723C6.42919 16.1213 6.17974 16.2502 5.98334 16.4423L5.93334 16.4923C5.77856 16.6473 5.59474 16.7702 5.39241 16.8541C5.19008 16.938 4.9732 16.9811 4.75418 16.9811C4.53515 16.9811 4.31827 16.938 4.11594 16.8541C3.91361 16.7702 3.7298 16.6473 3.57501 16.4923C3.42005 16.3375 3.29712 16.1537 3.21324 15.9514C3.12937 15.7491 3.0862 15.5322 3.0862 15.3132C3.0862 15.0941 3.12937 14.8772 3.21324 14.6749C3.29712 14.4726 3.42005 14.2888 3.57501 14.134L3.62501 14.084C3.81712 13.8876 3.946 13.6381 3.99501 13.3678C4.04403 13.0975 4.01094 12.8187 3.90001 12.5673C3.79437 12.3208 3.61897 12.1106 3.3954 11.9626C3.17182 11.8145 2.90983 11.7351 2.64168 11.734H2.50001C2.05798 11.734 1.63406 11.5584 1.3215 11.2458C1.00894 10.9333 0.833344 10.5093 0.833344 10.0673C0.833344 9.62529 1.00894 9.20137 1.3215 8.88881C1.63406 8.57625 2.05798 8.40065 2.50001 8.40065H2.57501C2.85084 8.3942 3.11835 8.30492 3.34276 8.14441C3.56717 7.9839 3.73811 7.7596 3.83334 7.50065C3.94427 7.2493 3.97736 6.97049 3.92835 6.70016C3.87933 6.42983 3.75046 6.18038 3.55834 5.98398L3.50834 5.93398C3.35338 5.7792 3.23045 5.59538 3.14658 5.39305C3.0627 5.19072 3.01953 4.97384 3.01953 4.75482C3.01953 4.53579 3.0627 4.31891 3.14658 4.11658C3.23045 3.91425 3.35338 3.73044 3.50834 3.57565C3.66313 3.42069 3.84695 3.29776 4.04928 3.21388C4.25161 3.13001 4.46848 3.08684 4.68751 3.08684C4.90654 3.08684 5.12341 3.13001 5.32574 3.21388C5.52807 3.29776 5.71189 3.42069 5.86668 3.57565L5.91668 3.62565C6.11308 3.81777 6.36252 3.94664 6.63285 3.99565C6.90318 4.04467 7.182 4.01158 7.43334 3.90065H7.50001C7.74648 3.79502 7.95669 3.61961 8.10475 3.39604C8.25282 3.17246 8.33227 2.91047 8.33334 2.64232V2.50065C8.33334 2.05862 8.50894 1.6347 8.8215 1.32214C9.13406 1.00958 9.55798 0.833984 10 0.833984C10.442 0.833984 10.866 1.00958 11.1785 1.32214C11.4911 1.6347 11.6667 2.05862 11.6667 2.50065V2.57565C11.6677 2.84381 11.7472 3.1058 11.8953 3.32937C12.0433 3.55295 12.2535 3.72835 12.5 3.83398C12.7514 3.94491 13.0302 3.978 13.3005 3.92899C13.5708 3.87997 13.8203 3.7511 14.0167 3.55898L14.0667 3.50898C14.2215 3.35402 14.4053 3.23109 14.6076 3.14722C14.8099 3.06334 15.0268 3.02017 15.2458 3.02017C15.4649 3.02017 15.6817 3.06334 15.8841 3.14722C16.0864 3.23109 16.2702 3.35402 16.425 3.50898C16.58 3.66377 16.7029 3.84759 16.7868 4.04992C16.8707 4.25225 16.9138 4.46913 16.9138 4.68815C16.9138 4.90718 16.8707 5.12405 16.7868 5.32639C16.7029 5.52872 16.58 5.71253 16.425 5.86732L16.375 5.91732C16.1829 6.11372 16.054 6.36316 16.005 6.63349C15.956 6.90382 15.9891 7.18264 16.1 7.43398V7.50065C16.2056 7.74713 16.381 7.95733 16.6046 8.1054C16.8282 8.25346 17.0902 8.33292 17.3583 8.33398H17.5C17.942 8.33398 18.366 8.50958 18.6785 8.82214C18.9911 9.1347 19.1667 9.55862 19.1667 10.0007C19.1667 10.4427 18.9911 10.8666 18.6785 11.1792C18.366 11.4917 17.942 11.6673 17.5 11.6673H17.425C17.1569 11.6684 16.8949 11.7478 16.6713 11.8959C16.4477 12.044 16.2723 12.2542 16.1667 12.5007Z" stroke="white" stroke-width="2" stroke-linecap="round" stroke-linejoin="round"/>
</g>
<defs>
<clipPath id="clip0_78_1882">
<rect width="20" height="20" fill="white" transform="translate(0 0.000732422)"/>
</clipPath>
</defs>
</svg>
