<svg width="24" height="22" viewBox="0 0 24 22" fill="none" xmlns="http://www.w3.org/2000/svg">
<path d="M5.5 21.0007H4.20001C2.43301 21.0007 1 19.5677 1 17.8007C1 15.1497 3.14899 13.0007 5.79999 13.0007H10.2C12.851 13.0007 15 15.1497 15 17.8007C15 19.5677 13.567 21.0007 11.8 21.0007H10.5M17 21.0007H19.8C21.567 21.0007 23 19.5677 23 17.8007C23 15.1497 20.851 13.0007 18.2 13.0007H17M15 9.00073C17.209 9.00073 19 7.20973 19 5.00073C19 2.79173 17.209 1.00073 15 1.00073M12 5.00073C12 7.20973 10.209 9.00073 8 9.00073C5.791 9.00073 4 7.20973 4 5.00073C4 2.79173 5.791 1.00073 8 1.00073C10.209 1.00073 12 2.79173 12 5.00073Z" stroke="#A2A2A2" stroke-width="1.5" stroke-linecap="round" stroke-linejoin="round"/>
</svg>
