<svg width="28" height="22" viewBox="0 0 28 22" fill="none" xmlns="http://www.w3.org/2000/svg">
<path d="M21 18.6154V16.9231C21 16.0254 20.6313 15.1645 19.9749 14.5298C19.3185 13.8951 18.4283 13.5385 17.5 13.5385H10.5C9.57174 13.5385 8.6815 13.8951 8.02513 14.5298C7.36875 15.1645 7 16.0254 7 16.9231V18.6154" stroke="white" stroke-width="2" stroke-linecap="round" stroke-linejoin="round"/>
<path d="M14 10.1538C15.933 10.1538 17.5 8.6385 17.5 6.76923C17.5 4.89996 15.933 3.38461 14 3.38461C12.067 3.38461 10.5 4.89996 10.5 6.76923C10.5 8.6385 12.067 10.1538 14 10.1538Z" stroke="white" stroke-width="2" stroke-linecap="round" stroke-linejoin="round"/>
<path d="M25.375 18.5054V16.8131C25.3744 16.0632 25.1163 15.3347 24.6412 14.742C24.1661 14.1493 23.5009 13.7259 22.75 13.5385" stroke="white" stroke-width="2" stroke-linecap="round" stroke-linejoin="round"/>
<path d="M20 3C20.5721 3.19898 21.0792 3.65096 21.4413 4.28467C21.8034 4.91838 22 5.69778 22 6.5C22 7.30222 21.8034 8.08162 21.4413 8.71533C21.0792 9.34904 20.5721 9.80102 20 10" stroke="white" stroke-width="2" stroke-linecap="round" stroke-linejoin="round"/>
<path d="M2.625 18.5054V16.8131C2.62558 16.0632 2.88369 15.3347 3.35881 14.742C3.83392 14.1493 4.49914 13.7259 5.25 13.5385" stroke="white" stroke-width="2" stroke-linecap="round" stroke-linejoin="round"/>
<path d="M8 3C7.42789 3.19898 6.9208 3.65096 6.55868 4.28467C6.19655 4.91838 6 5.69778 6 6.5C6 7.30222 6.19655 8.08162 6.55868 8.71533C6.9208 9.34904 7.42789 9.80102 8 10" stroke="white" stroke-width="2" stroke-linecap="round" stroke-linejoin="round"/>
</svg>
