<svg width="20" height="20" viewBox="0 0 20 20" fill="none" xmlns="http://www.w3.org/2000/svg">
<path d="M1 7.30073V13.2407C1 15.2567 1 16.2647 1.3924 17.0351C1.7371 17.7128 2.28791 18.2636 2.96561 18.6083C3.73601 19.0007 4.74399 19.0007 6.75999 19.0007H13.24C15.256 19.0007 16.264 19.0007 17.0344 18.6083C17.7121 18.2636 18.2629 17.7128 18.6076 17.0351C19 16.2647 19 15.2567 19 13.2407V10.3607C19 8.34473 19 7.33672 18.6076 6.56632C18.2629 5.88862 17.7121 5.33784 17.0344 4.99314C16.264 4.60074 15.256 4.60073 13.24 4.60073H10M19 9.10073H18.55C17.0587 9.10073 15.85 10.3094 15.85 11.8007C15.85 13.292 17.0587 14.5007 18.55 14.5007H19M14.5 4.60073L13.528 3.30473C12.8944 2.45963 12.5776 2.03753 12.1762 1.73333C11.8207 1.46333 11.4175 1.26172 10.9882 1.13932C10.504 1.00072 9.9757 1.00073 8.92 1.00073H2.8C1.8055 1.00073 1 1.80623 1 2.80073C1 3.79523 1.8055 4.60073 2.8 4.60073H14.5Z" stroke="#A2A2A2" stroke-width="1.5" stroke-linecap="round" stroke-linejoin="round"/>
</svg>
